<?xml version="1.0" standalone="no"?><!DOCTYPE svg PUBLIC "-//W3C//DTD SVG 1.1//EN" "http://www.w3.org/Graphics/SVG/1.1/DTD/svg11.dtd"><svg t="1766459105972" class="icon" viewBox="0 0 1024 1024" version="1.1" xmlns="http://www.w3.org/2000/svg" p-id="7149" xmlns:xlink="http://www.w3.org/1999/xlink" width="200" height="200"><path d="M761.250909 794.996364C954.181818 601.134545 958.836364 354.210909 809.192727 204.567273s-395.636364-146.152727-590.429091 47.941818C38.632727 432.174545-4.887273 685.149091 109.381818 840.378182a89.134545 89.134545 0 0 0-11.170909 26.298182A40.494545 40.494545 0 0 0 106.821818 907.636364a43.054545 43.054545 0 0 0 41.192727 8.145454 81.454545 81.454545 0 0 0 25.134546-10.705454c155.229091 113.570909 408.669091 69.818182 588.101818-110.08z" fill="#EAD050" p-id="7150"></path><path d="M754.715604 253.816018a30.952727 23.272727 45 1 0 32.912607-32.912606 30.952727 23.272727 45 1 0-32.912607 32.912606Z" fill="#604D42" p-id="7151"></path><path d="M841.541818 188.974545s73.309091-5.12 127.301818 76.8 20.945455 253.44 31.185455 323.258182a415.883636 415.883636 0 0 1-97.047273-130.327272 814.545455 814.545455 0 0 1-61.44-269.73091z" fill="#73D36E" p-id="7152"></path><path d="M468.440563 745.683568m-20.705343 0.553038a20.712727 20.712727 0 1 0 41.410686-1.106075 20.712727 20.712727 0 1 0-41.410686 1.106075Z" fill="#E5A923" p-id="7153"></path><path d="M629.138169 734.645022m-20.705343 0.553037a20.712727 20.712727 0 1 0 41.410686-1.106074 20.712727 20.712727 0 1 0-41.410686 1.106074Z" fill="#E5A923" p-id="7154"></path><path d="M529.50999 793.609825m-20.705343 0.553038a20.712727 20.712727 0 1 0 41.410686-1.106075 20.712727 20.712727 0 1 0-41.410686 1.106075Z" fill="#E5A923" p-id="7155"></path><path d="M410.23194 813.54085m-20.705343 0.553037a20.712727 20.712727 0 1 0 41.410686-1.106075 20.712727 20.712727 0 1 0-41.410686 1.106075Z" fill="#E5A923" p-id="7156"></path><path d="M556.869179 711.683738m-20.705342 0.553037a20.712727 20.712727 0 1 0 41.410685-1.106075 20.712727 20.712727 0 1 0-41.410685 1.106075Z" fill="#E5A923" p-id="7157"></path><path d="M642.104895 654.040564m-20.705343 0.553038a20.712727 20.712727 0 1 0 41.410686-1.106075 20.712727 20.712727 0 1 0-41.410686 1.106075Z" fill="#E5A923" p-id="7158"></path><path d="M285.556364 264.843636a317.672727 317.672727 0 0 0-69.818182 72.610909c-31.650909 45.149091-46.545455 78.661818-40.494546 78.894546s30.254545-36.305455 61.207273-69.818182a706.094545 706.094545 0 0 1 67.490909-65.163636c31.883636-23.738182 3.025455-30.021818-18.385454-16.523637zM361.192727 223.185455a20.48 20.48 0 0 0-24.901818 0 17.221818 17.221818 0 0 0-6.050909 21.876363c5.12 7.68 14.429091 5.818182 23.272727 0s13.265455-14.661818 7.68-21.876363z" fill="#FFFFFF" p-id="7159"></path><path d="M376.32 100.305455c146.618182-60.741818 296.727273-34.443636 401.454545 69.818181a11.636364 11.636364 0 0 0 8.145455 3.490909 11.170909 11.170909 0 0 0 8.378182-3.490909 687.941818 687.941818 0 0 0 48.64-56.087272 378.647273 378.647273 0 0 0 26.763636-39.098182l33.745455 12.8c-5.585455 7.214545-13.498182 17.221818-23.272728 29.090909S854.341818 146.618182 854.109091 146.618182a11.636364 11.636364 0 1 0 16.989091 15.825454s14.661818-15.825455 27.229091-31.185454c20.247273-24.436364 32.581818-41.658182 32.581818-42.356364a11.636364 11.636364 0 0 0-5.352727-17.687273l-57.716364-21.876363a11.636364 11.636364 0 0 0-14.894545 6.283636 260.887273 260.887273 0 0 1-29.09091 44.218182c-14.894545 19.549091-29.789091 36.305455-38.632727 46.545455C674.909091 40.96 519.214545 15.825455 367.476364 78.661818a11.636364 11.636364 0 1 0 8.843636 21.410909zM256 169.192727a11.636364 11.636364 0 0 0 6.981818-2.327272 539.461818 539.461818 0 0 1 46.545455-32.581819 11.636364 11.636364 0 0 0-12.101818-19.781818 567.854545 567.854545 0 0 0-49.338182 33.978182 11.636364 11.636364 0 0 0 6.981818 20.945455zM870.167273 547.141818a11.636364 11.636364 0 0 0-14.894546 6.981818A525.730909 525.730909 0 0 1 730.065455 744.727273c-174.08 174.08-420.305455 220.392727-572.974546 107.985454a11.636364 11.636364 0 0 0-13.498182 0 69.818182 69.818182 0 0 1-21.178182 9.076364A31.650909 31.650909 0 0 1 93.090909 856.436364a29.090909 29.090909 0 0 1-5.585454-29.090909 78.429091 78.429091 0 0 1 9.541818-23.272728 11.636364 11.636364 0 0 0 0-13.498182C-16.523636 638.836364 29.789091 392.378182 203.869091 218.530909q10.472727-10.472727 21.178182-20.247273A11.636364 11.636364 0 1 0 209.454545 181.061818q-11.170909 10.24-22.10909 20.945455C7.68 381.672727-40.96 636.741818 72.610909 798.952727a104.029091 104.029091 0 0 0-8.610909 23.272728 51.898182 51.898182 0 0 0 11.869091 51.2 53.527273 53.527273 0 0 0 51.665454 10.938181 89.134545 89.134545 0 0 0 22.109091-8.378181 354.210909 354.210909 0 0 0 205.032728 60.974545c132.189091 0 277.410909-61.207273 391.912727-175.709091a548.770909 548.770909 0 0 0 130.792727-198.981818 11.636364 11.636364 0 0 0-7.214545-15.127273zM986.763636 504.087273c2.792727-79.825455 6.283636-179.2-32.349091-237.847273-57.018182-86.574545-134.516364-82.152727-137.774545-81.92a11.636364 11.636364 0 0 0-10.705455 12.101818 816.64 816.64 0 0 0 62.603637 274.152727A424.029091 424.029091 0 0 0 968.378182 605.090909a11.636364 11.636364 0 0 0 19.083636-10.705454 586.24 586.24 0 0 1-0.698182-90.298182z m-23.272727 0c0 23.272727-1.629091 44.683636-1.163636 63.069091a416.349091 416.349091 0 0 1-72.843637-105.890909 787.316364 787.316364 0 0 1-59.578181-253.207273 147.083636 147.083636 0 0 1 105.192727 69.818182c34.443636 53.76 30.952727 148.945455 28.392727 225.28z" fill="#604D42" p-id="7160"></path></svg>